<?xml version="1.0" encoding="UTF-8" standalone="no"?> <!-- Created with Vectornator for iOS (http://vectornator.io/) --><!DOCTYPE svg PUBLIC "-//W3C//DTD SVG 1.1//EN" "http://www.w3.org/Graphics/SVG/1.1/DTD/svg11.dtd">
<svg height="100%" style="fill-rule:nonzero;clip-rule:evenodd;stroke-linecap:round;stroke-linejoin:round;" xmlns:xlink="http://www.w3.org/1999/xlink" xmlns="http://www.w3.org/2000/svg" xml:space="preserve" width="100%" xmlns:vectornator="http://vectornator.io" version="1.1" viewBox="0 0 1200 800">
<metadata>
<vectornator:setting key="RulersVisible" value="1"/>
<vectornator:setting key="doHistoryDisabled" value="1"/>
<vectornator:setting key="Units" value="Points"/>
<vectornator:setting key="DynamicGuides" value="1"/>
<vectornator:setting key="GuidesVisible" value="1"/>
<vectornator:setting key="DimensionsVisible" value="1"/>
<vectornator:setting key="SnapToGuides" value="1"/>
</metadata>
<defs/>
<g id="Untitled copier" vectornator:layerName="Untitled copier">
<g opacity="1">
<path d="M787.951+770.756L787.951+757.977C787.951+756.535+788.341+755.51+789.12+754.9C789.899+754.291+791.033+753.986+792.522+753.986C792.498+754.127+792.475+754.344+792.451+754.637C792.428+754.906+792.41+755.267+792.398+755.718C792.387+756.169+792.381+756.752+792.381+757.467C792.381+757.678+792.381+758.056+792.381+758.601C792.381+759.146+792.375+759.717+792.363+760.314C792.352+760.912+792.346+761.466+792.346+761.976C792.346+762.485+792.346+762.811+792.346+762.951C793.4+762.4+794.613+762.119+795.984+762.107C797.109+762.107+798.158+762.336+799.131+762.793C800.104+763.25+800.947+763.865+801.662+764.639C802.4+765.436+802.98+766.35+803.402+767.381C803.824+768.412+804.035+769.537+804.035+770.756C804.035+771.928+803.845+773.038+803.464+774.087C803.083+775.136+802.541+776.053+801.838+776.838C801.147+777.611+800.303+778.224+799.307+778.675C798.311+779.126+797.203+779.352+795.984+779.352C794.859+779.352+793.808+779.126+792.829+778.675C791.851+778.224+791.004+777.611+790.289+776.838C789.574+776.064+789.006+775.156+788.584+774.113C788.162+773.07+787.951+771.951+787.951+770.756ZM792.311+770.721C792.311+771.869+792.442+772.81+792.706+773.542C792.97+774.274+793.292+774.84+793.673+775.238C794.054+775.637+794.455+775.906+794.877+776.047C795.299+776.188+795.668+776.258+795.984+776.258C796.301+776.258+796.667+776.188+797.083+776.047C797.499+775.906+797.897+775.637+798.278+775.238C798.659+774.84+798.984+774.274+799.254+773.542C799.523+772.81+799.658+771.869+799.658+770.721C799.658+769.572+799.523+768.632+799.254+767.899C798.984+767.167+798.659+766.602+798.278+766.203C797.897+765.805+797.496+765.535+797.074+765.395C796.652+765.254+796.289+765.184+795.984+765.184C795.668+765.184+795.299+765.254+794.877+765.395C794.455+765.535+794.054+765.805+793.673+766.203C793.292+766.602+792.97+767.167+792.706+767.899C792.442+768.632+792.311+769.572+792.311+770.721Z" opacity="1" fill="#151e27"/>
<path d="M804.949+762.512C805.5+762.383+806.033+762.318+806.549+762.318C806.701+762.318+806.848+762.324+806.988+762.336C807.539+762.383+808.099+762.544+808.667+762.819C809.235+763.095+809.684+763.619+810.012+764.393C810.059+764.51+810.185+764.814+810.39+765.307C810.595+765.799+810.847+766.417+811.146+767.161C811.444+767.905+811.787+768.726+812.174+769.622C812.561+770.519+812.947+771.424+813.334+772.338C813.768+771.33+814.175+770.369+814.556+769.455C814.937+768.541+815.276+767.727+815.575+767.012C815.874+766.297+816.114+765.705+816.296+765.236C816.478+764.768+816.592+764.486+816.639+764.393C816.955+763.619+817.4+763.095+817.975+762.819C818.549+762.544+819.111+762.383+819.662+762.336C819.803+762.324+819.949+762.318+820.102+762.318C820.617+762.318+821.156+762.383+821.719+762.512C820.184+766.203+818.801+769.514+817.57+772.443C817.043+773.686+816.522+774.922+816.006+776.152C815.49+777.383+815.03+778.49+814.626+779.475C814.222+780.459+813.882+781.273+813.606+781.918C813.331+782.563+813.164+782.932+813.105+783.025C812.766+783.799+812.323+784.329+811.778+784.616C811.233+784.903+810.68+785.07+810.117+785.117C809.953+785.141+809.789+785.152+809.625+785.152C809.133+785.152+808.617+785.07+808.078+784.906C808.371+784.238+808.682+783.506+809.01+782.709C809.303+782.018+809.634+781.221+810.003+780.318C810.372+779.416+810.773+778.461+811.207+777.453C811.137+777.289+810.987+776.94+810.759+776.407C810.53+775.874+810.267+775.238+809.968+774.5C809.669+773.762+809.332+772.953+808.957+772.074C808.582+771.195+808.213+770.311+807.85+769.42C806.982+767.334+806.016+765.031+804.949+762.512Z" opacity="1" fill="#151e27"/>
<path d="M831.791+775.01L831.826+758.012C831.826+756.57+832.21+755.539+832.978+754.918C833.745+754.297+834.873+753.986+836.361+753.986C836.338+754.15+836.314+754.379+836.291+754.672C836.268+754.941+836.25+755.296+836.238+755.735C836.227+756.175+836.221+756.752+836.221+757.467L836.221+763.742C836.584+763.449+837.07+763.057+837.68+762.564C838.289+762.072+838.919+761.568+839.569+761.053C840.22+760.537+840.826+760.057+841.389+759.611C841.951+759.166+842.355+758.85+842.602+758.662C843.586+757.889+844.395+757.382+845.027+757.142C845.66+756.901+846.217+756.758+846.697+756.711C846.838+756.699+846.973+756.693+847.102+756.693C847.5+756.682+847.828+756.734+848.086+756.852C848.438+756.992+848.707+757.162+848.895+757.361C849.129+757.596+849.299+757.859+849.404+758.152C849.217+758.293+848.815+758.618+848.2+759.128C847.585+759.638+846.882+760.215+846.091+760.859C845.3+761.504+844.482+762.169+843.639+762.854C842.795+763.54+842.051+764.146+841.406+764.674L847.963+774.324L850.406+777.928C850.195+778.139+849.955+778.314+849.686+778.455C849.475+778.596+849.223+778.722+848.93+778.833C848.637+778.944+848.35+779+848.068+779C847.201+779+846.457+778.707+845.836+778.121C845.215+777.535+844.641+776.855+844.113+776.082C843.926+775.789+843.656+775.385+843.305+774.869C842.953+774.354+842.572+773.797+842.162+773.199C841.752+772.602+841.33+771.986+840.897+771.354C840.463+770.721+840.062+770.126+839.692+769.569C839.323+769.013+839.007+768.532+838.743+768.128C838.48+767.724+838.301+767.457+838.207+767.328C837.797+767.668+837.425+767.976+837.091+768.251C836.757+768.526+836.467+768.764+836.221+768.963L836.221+775.502C836.221+776.24+836.227+776.835+836.238+777.286C836.25+777.737+836.268+778.092+836.291+778.35C836.314+778.643+836.338+778.859+836.361+779C834.873+779+833.739+778.695+832.96+778.086C832.181+777.477+831.791+776.451+831.791+775.01Z" opacity="1" fill="#151e27"/>
<path d="M851.848+770.756C851.848+769.561+852.032+768.438+852.401+767.39C852.771+766.341+853.307+765.424+854.01+764.639C854.701+763.865+855.545+763.25+856.541+762.793C857.537+762.336+858.645+762.107+859.863+762.107C861.211+762.107+862.436+762.424+863.537+763.057L863.502+757.977C863.502+756.535+863.897+755.51+864.689+754.9C865.48+754.291+866.619+753.986+868.107+753.986C868.084+754.127+868.061+754.344+868.037+754.637C868.014+754.906+867.996+755.267+867.984+755.718C867.973+756.169+867.967+756.752+867.967+757.467L867.932+770.756C867.932+771.928+867.741+773.038+867.36+774.087C866.98+775.136+866.438+776.053+865.734+776.838C865.043+777.611+864.199+778.224+863.203+778.675C862.207+779.126+861.094+779.352+859.863+779.352C858.762+779.352+857.725+779.126+856.752+778.675C855.779+778.224+854.924+777.611+854.186+776.838C853.471+776.064+852.902+775.156+852.48+774.113C852.059+773.07+851.848+771.951+851.848+770.756ZM856.189+770.721C856.189+771.869+856.324+772.81+856.594+773.542C856.863+774.274+857.189+774.84+857.569+775.238C857.95+775.637+858.349+775.906+858.765+776.047C859.181+776.188+859.547+776.258+859.863+776.258C860.18+776.258+860.549+776.188+860.971+776.047C861.393+775.906+861.794+775.637+862.175+775.238C862.556+774.84+862.878+774.274+863.142+773.542C863.405+772.81+863.537+771.869+863.537+770.721C863.537+769.572+863.405+768.632+863.142+767.899C862.878+767.167+862.556+766.602+862.175+766.203C861.794+765.805+861.393+765.535+860.971+765.395C860.549+765.254+860.18+765.184+859.863+765.184C859.547+765.184+859.181+765.254+858.765+765.395C858.349+765.535+857.95+765.805+857.569+766.203C857.189+766.602+856.863+767.167+856.594+767.899C856.324+768.632+856.189+769.572+856.189+770.721Z" opacity="1" fill="#151e27"/>
<path d="M871.166+756.219C871.166+755.762+871.277+755.352+871.5+754.988C871.711+754.578+872.01+754.259+872.397+754.03C872.783+753.802+873.176+753.688+873.574+753.688C873.938+753.688+874.289+753.787+874.629+753.986C875.016+754.174+875.303+754.446+875.49+754.804C875.678+755.161+875.772+755.545+875.772+755.955C875.772+756.389+875.666+756.799+875.455+757.186C874.951+758.029+874.254+758.451+873.363+758.451C872.977+758.451+872.619+758.363+872.291+758.188C871.928+757.977+871.649+757.695+871.456+757.344C871.263+756.992+871.166+756.617+871.166+756.219ZM871.272+775.01C871.272+775.607+871.362+776.182+871.544+776.732C871.726+777.283+872.004+777.764+872.379+778.174C872.754+778.584+873.217+778.906+873.768+779.141C874.178+779.305+874.635+779.387+875.139+779.387C875.326+779.387+875.514+779.375+875.701+779.352C876.475+779.305+877.04+779.085+877.397+778.692C877.755+778.3+877.992+777.887+878.109+777.453C878.227+777.066+878.285+776.645+878.285+776.188C878.285+776.047+878.279+775.906+878.268+775.766C878.15+775.93+877.945+776.064+877.652+776.17C877.359+776.275+877.069+776.305+876.782+776.258C876.495+776.211+876.243+776.062+876.026+775.81C875.81+775.558+875.701+775.145+875.701+774.57L875.701+765.975C875.701+765.26+875.707+764.677+875.719+764.226C875.73+763.774+875.748+763.42+875.772+763.162C875.795+762.869+875.818+762.641+875.842+762.477C874.354+762.477+873.226+762.787+872.458+763.408C871.69+764.029+871.307+765.061+871.307+766.502L871.272+775.01Z" opacity="1" fill="#151e27"/>
<path d="M879.92+770.756C879.92+769.561+880.11+768.438+880.491+767.39C880.872+766.341+881.414+765.424+882.117+764.639C882.809+763.865+883.647+763.25+884.631+762.793C885.615+762.336+886.717+762.107+887.936+762.107C889.213+762.107+890.397+762.354+891.486+762.846C892.576+763.338+893.52+764.018+894.316+764.885L894.422+764.99L894.316+765.148C894.047+765.582+893.772+765.857+893.49+765.975C893.174+766.162+892.875+766.244+892.594+766.221C892.277+766.221+891.958+766.168+891.636+766.062C891.314+765.957+890.971+765.84+890.607+765.711C890.244+765.57+889.834+765.447+889.377+765.342C888.92+765.236+888.439+765.184+887.936+765.184C887.619+765.184+887.253+765.254+886.837+765.395C886.421+765.535+886.022+765.805+885.642+766.203C885.261+766.602+884.936+767.167+884.666+767.899C884.397+768.632+884.262+769.572+884.262+770.721C884.262+771.869+884.397+772.81+884.666+773.542C884.936+774.274+885.261+774.84+885.642+775.238C886.022+775.637+886.424+775.906+886.846+776.047C887.268+776.188+887.631+776.258+887.936+776.258C888.439+776.258+888.92+776.211+889.377+776.117C889.834+776.023+890.244+775.918+890.607+775.801C890.971+775.66+891.314+775.534+891.636+775.423C891.958+775.312+892.277+775.256+892.594+775.256C892.91+775.256+893.221+775.338+893.525+775.502C893.795+775.666+894.07+775.941+894.352+776.328L894.422+776.486L894.316+776.592C893.52+777.459+892.576+778.136+891.486+778.622C890.397+779.108+889.225+779.352+887.971+779.352C886.846+779.352+885.797+779.126+884.824+778.675C883.852+778.224+882.996+777.611+882.258+776.838C881.543+776.064+880.975+775.156+880.553+774.113C880.131+773.07+879.92+771.951+879.92+770.756Z" opacity="1" fill="#151e27"/>
<path d="M896.936+775.01L896.971+757.977C896.971+756.535+897.343+755.51+898.087+754.9C898.831+754.291+899.947+753.986+901.436+753.986C901.412+754.127+901.389+754.344+901.365+754.637C901.342+754.906+901.324+755.267+901.313+755.718C901.301+756.169+901.295+756.752+901.295+757.467L901.295+762.617C901.846+762.43+902.414+762.298+903+762.222C903.586+762.146+904.154+762.107+904.705+762.107C905.643+762.107+906.58+762.21+907.518+762.415C908.455+762.62+909.302+763.013+910.058+763.593C910.814+764.173+911.426+764.973+911.895+765.992C912.363+767.012+912.598+768.324+912.598+769.93L912.598+775.502C912.598+776.217+912.604+776.806+912.615+777.269C912.627+777.731+912.645+778.092+912.668+778.35C912.691+778.643+912.715+778.859+912.738+779C911.25+779+910.11+778.689+909.319+778.068C908.528+777.447+908.133+776.428+908.133+775.01L908.098+769.93C908.098+768.922+907.995+768.11+907.79+767.495C907.585+766.88+907.321+766.399+906.999+766.054C906.677+765.708+906.316+765.477+905.918+765.359C905.52+765.242+905.115+765.184+904.705+765.184C904.295+765.184+903.894+765.242+903.501+765.359C903.108+765.477+902.751+765.708+902.429+766.054C902.106+766.399+901.849+766.88+901.655+767.495C901.462+768.11+901.365+768.922+901.365+769.93L901.365+775.502C901.365+776.217+901.371+776.806+901.383+777.269C901.395+777.731+901.412+778.092+901.436+778.35C901.459+778.643+901.482+778.859+901.506+779C900.018+779+898.884+778.689+898.105+778.068C897.325+777.447+896.936+776.428+896.936+775.01Z" opacity="1" fill="#151e27"/>
<path d="M915.428+770.756C915.428+769.561+915.612+768.438+915.981+767.39C916.351+766.341+916.887+765.436+917.59+764.674C918.281+763.877+919.125+763.25+920.121+762.793C921.117+762.336+922.225+762.107+923.443+762.107C924.568+762.107+925.62+762.336+926.599+762.793C927.577+763.25+928.424+763.877+929.139+764.674C929.877+765.447+930.457+766.355+930.879+767.398C931.301+768.441+931.512+769.561+931.512+770.756C931.512+771.951+931.321+773.073+930.94+774.122C930.56+775.171+930.018+776.076+929.314+776.838C928.623+777.635+927.779+778.262+926.783+778.719C925.787+779.176+924.674+779.404+923.443+779.404C922.342+779.404+921.305+779.176+920.332+778.719C919.359+778.262+918.504+777.635+917.766+776.838C917.051+776.064+916.482+775.156+916.061+774.113C915.639+773.07+915.428+771.951+915.428+770.756ZM919.77+770.756C919.77+771.904+919.904+772.839+920.174+773.56C920.443+774.28+920.769+774.846+921.149+775.256C921.53+775.666+921.929+775.941+922.345+776.082C922.761+776.223+923.127+776.293+923.443+776.293C923.76+776.293+924.129+776.223+924.551+776.082C924.973+775.941+925.374+775.666+925.755+775.256C926.136+774.846+926.458+774.28+926.722+773.56C926.985+772.839+927.117+771.904+927.117+770.756C927.117+769.607+926.985+768.667+926.722+767.935C926.458+767.202+926.136+766.637+925.755+766.238C925.374+765.84+924.973+765.57+924.551+765.43C924.129+765.289+923.76+765.219+923.443+765.219C923.127+765.219+922.761+765.289+922.345+765.43C921.929+765.57+921.53+765.84+921.149+766.238C920.769+766.637+920.443+767.202+920.174+767.935C919.904+768.667+919.77+769.607+919.77+770.756Z" opacity="1" fill="#151e27"/>
<path d="M934.201+775.01L934.236+769.93C934.236+768.324+934.471+767.012+934.939+765.992C935.408+764.973+936.009+764.173+936.741+763.593C937.474+763.013+938.3+762.62+939.22+762.415C940.14+762.21+941.068+762.107+942.006+762.107C942.92+762.107+943.846+762.21+944.783+762.415C945.721+762.62+946.567+763.013+947.323+763.593C948.079+764.173+948.691+764.973+949.16+765.992C949.629+767.012+949.863+768.324+949.863+769.93L950.004+779C948.539+779+947.411+778.689+946.62+778.068C945.829+777.447+945.434+776.428+945.434+775.01L945.469+769.93C945.469+768.922+945.366+768.11+945.161+767.495C944.956+766.88+944.687+766.399+944.353+766.054C944.019+765.708+943.647+765.477+943.236+765.359C942.826+765.242+942.416+765.184+942.006+765.184C941.596+765.184+941.194+765.242+940.802+765.359C940.409+765.477+940.052+765.708+939.73+766.054C939.407+766.399+939.144+766.88+938.939+767.495C938.733+768.11+938.631+768.922+938.631+769.93L938.631+775.502C938.654+776.217+938.672+776.806+938.684+777.269C938.695+777.731+938.713+778.092+938.736+778.35C938.76+778.643+938.783+778.859+938.807+779C937.318+779+936.179+778.689+935.388+778.068C934.597+777.447+934.201+776.428+934.201+775.01Z" opacity="1" fill="#151e27"/>
<path d="M953.045+777.172C953.045+776.762+953.156+776.352+953.379+775.941C953.613+775.531+953.924+775.218+954.311+775.001C954.697+774.784+955.09+774.676+955.488+774.676C955.898+774.676+956.25+774.775+956.543+774.975C956.906+775.162+957.182+775.435+957.369+775.792C957.557+776.149+957.65+776.533+957.65+776.943C957.65+777.377+957.545+777.787+957.334+778.174C957.123+778.584+956.824+778.897+956.438+779.114C956.051+779.331+955.652+779.439+955.242+779.439C954.832+779.439+954.486+779.34+954.205+779.141C953.432+778.707+953.045+778.051+953.045+777.172Z" opacity="1" fill="#151e27"/>
<path d="M960.885+775.01L960.92+762.23C960.92+761.035+961.096+759.919+961.447+758.882C961.799+757.845+962.32+756.934+963.012+756.148C963.68+755.352+964.494+754.73+965.455+754.285C966.416+753.84+967.512+753.617+968.742+753.617C969.457+753.617+970.066+753.74+970.57+753.986C971.121+754.197+971.555+754.555+971.871+755.059C972.059+755.445+972.152+755.832+972.152+756.219C972.152+756.488+972.117+756.74+972.047+756.975L971.977+757.186L971.801+757.115C971.461+756.998+971.068+756.896+970.623+756.808C970.178+756.72+969.68+756.676+969.129+756.676C968.941+756.676+968.704+756.699+968.417+756.746C968.13+756.793+967.816+756.904+967.477+757.08C967.137+757.244+966.817+757.476+966.519+757.774C966.22+758.073+965.965+758.475+965.754+758.979C965.613+759.318+965.499+759.717+965.411+760.174C965.323+760.631+965.279+761.146+965.279+761.721L965.279+762.107L970.131+762.107C970.131+763.186+969.832+764.05+969.234+764.7C968.637+765.351+967.787+765.676+966.686+765.676L965.279+765.676L965.314+775.502C965.314+776.217+965.32+776.806+965.332+777.269C965.344+777.731+965.361+778.092+965.385+778.35C965.408+778.643+965.432+778.859+965.455+779C963.967+779+962.833+778.689+962.054+778.068C961.274+777.447+960.885+776.428+960.885+775.01Z" opacity="1" fill="#151e27"/>
<path d="M972.504+775.01L972.504+770.316C972.504+768.711+972.738+767.398+973.207+766.379C973.676+765.359+974.282+764.563+975.026+763.988C975.771+763.414+976.603+763.024+977.522+762.819C978.442+762.614+979.359+762.512+980.273+762.512L982.049+762.512C982.119+762.828+982.154+763.127+982.154+763.408C982.154+763.584+982.143+763.754+982.119+763.918C982.072+764.281+981.911+764.63+981.636+764.964C981.36+765.298+980.906+765.5+980.273+765.57C979.863+765.617+979.462+765.708+979.069+765.843C978.677+765.978+978.325+766.206+978.015+766.528C977.704+766.851+977.446+767.311+977.241+767.908C977.036+768.506+976.934+769.309+976.934+770.316L976.934+775.537C976.934+776.252+976.939+776.835+976.951+777.286C976.963+777.737+976.98+778.092+977.004+778.35C977.027+778.643+977.051+778.859+977.074+779C975.609+779+974.481+778.695+973.69+778.086C972.899+777.477+972.504+776.451+972.504+775.01Z" opacity="1" fill="#151e27"/>
</g>
</g>
<g id="Untitled" vectornator:layerName="Untitled">
<g opacity="1">
<path d="M470.543+691.535L486.583+691.535L483.287+679.377C481.676+673.225+480.577+668.488+479.991+665.168C479.405+661.848+479.039+658.723+478.893+655.793L478.233+655.793C478.087+658.723+477.721+661.848+477.135+665.168C476.549+668.488+475.45+673.225+473.839+679.377L470.543+691.535ZM419.42+730.5L457.652+623.273L500.572+623.273L538.072+730.5L496.617+730.5L493.175+717.023L464.098+717.023L460.802+730.5L419.42+730.5Z" opacity="1" fill="#ee2e26"/>
<path d="M582.237+697.761C590.929+697.712+597.276+696.015+601.28+692.67C605.284+689.326+607.286+684.089+607.286+676.96C607.286+669.978+605.37+664.777+601.537+661.359C597.704+657.941+591.832+656.232+583.922+656.232L582.237+656.232L582.237+697.761ZM544.005+730.5L544.005+623.273L575.206+623.273C585.118+623.273+593.578+623.823+600.584+624.921C607.591+626.02+613.292+627.717+617.687+630.012C626.964+634.895+634.081+641.364+639.037+649.421C643.993+657.478+646.471+666.657+646.471+676.96C646.471+687.214+644.005+696.345+639.073+704.353C634.142+712.36+627.013+718.83+617.687+723.762C613.146+726.105+607.384+727.814+600.401+728.889C593.419+729.963+584.068+730.5+572.35+730.5L544.005+730.5Z" opacity="1" fill="#ee2e26"/>
<path d="M662.657+730.5L662.657+623.273L700.45+623.273L733.775+679.377C733.336+676.887+733.031+674.128+732.86+671.101C732.689+668.073+732.604+664.118+732.604+659.235L732.604+623.273L769.737+623.273L769.737+730.5L731.651+730.5L698.692+674.836C699.083+677.229+699.376+679.804+699.571+682.563C699.767+685.322+699.864+688.41+699.864+691.828L699.864+730.5L662.657+730.5Z" opacity="1" fill="#ee2e26"/>
</g>
<g opacity="1">
<path d="M436.762+735.812C433.099+735.812+428.726+735.511+423.642+734.91C422.658+734.746+421.879+734.295+421.305+733.557C420.731+732.819+420.499+731.958+420.608+730.974L420.69+730.974L420.69+730.892L420.608+730.892C420.772+729.963+421.25+729.211+422.043+728.637C422.836+728.063+423.697+727.831+424.626+727.94C442.229+730.4+454.802+728.131+462.346+721.134C467.977+715.941+470.464+707.932+469.808+697.108C469.589+693.336+469.029+690.015+468.127+687.145C467.225+684.275+466.05+681.911+464.601+680.052C463.152+678.193+461.458+676.608+459.517+675.296C457.576+673.984+455.458+673.041+453.162+672.467C450.866+671.893+448.406+671.428+445.782+671.073C443.158+670.718+440.452+670.567+437.664+670.622C434.876+670.677+432.006+670.677+429.054+670.622C428.835+670.622+428.439+670.636+427.865+670.663C427.291+670.69+426.867+670.704+426.594+670.704L426.676+670.622L426.676+703.832C426.676+704.761+426.334+705.568+425.651+706.251C424.968+706.934+424.161+707.276+423.232+707.276C422.248+707.276+421.414+706.948+420.731+706.292C420.048+705.636+419.706+704.816+419.706+703.832L419.706+667.178C419.706+666.194+420.034+665.374+420.69+664.718C421.401+664.062+422.248+663.734+423.232+663.734L423.724+663.734C424.271+663.734+425.132+663.72+426.307+663.693C427.482+663.666+428.371+663.652+428.972+663.652C431.487+663.488+434.056+663.474+436.68+663.611C439.304+663.748+441.928+663.871+444.552+663.98C447.176+664.089+449.759+664.472+452.301+665.128C454.843+665.784+457.262+666.563+459.558+667.465C461.854+668.367+464+669.665+465.995+671.36C467.99+673.055+469.74+675.023+471.243+677.264C472.746+679.505+473.976+682.266+474.933+685.546C475.89+688.826+476.505+692.516+476.778+696.616C477.598+709.572+474.345+719.467+467.02+726.3C460.187+732.641+450.101+735.812+436.762+735.812Z" opacity="1" fill="#151e27"/>
<path d="M504.084+733.926C503.428+734.582+502.608+734.91+501.624+734.91C500.64+734.91+499.806+734.568+499.123+733.885C498.44+733.202+498.098+732.368+498.098+731.384L498.098+668.9C498.098+667.151+498.945+666.003+500.64+665.456C501.241+665.292+502.13+665.073+503.305+664.8C504.48+664.527+506.476+664.24+509.291+663.939C512.106+663.638+514.867+663.529+517.573+663.611C520.279+663.693+523.258+664.212+526.511+665.169C529.764+666.126+532.593+667.533+534.998+669.392C541.722+674.64+544.947+682.84+544.674+693.992C544.619+694.976+544.237+695.796+543.526+696.452C542.815+697.108+541.968+697.409+540.984+697.354L540.984+697.272L541.066+697.272L541.066+697.354C540.137+697.354+539.33+696.999+538.647+696.288C537.964+695.577+537.649+694.757+537.704+693.828C537.868+684.972+535.517+678.685+530.652+674.968C524.912+670.485+516.357+669.365+504.986+671.606L505.068+671.524L505.068+731.384C505.068+732.368+504.74+733.215+504.084+733.926ZM537.458+737.124C536.529+737.124+535.627+736.741+534.752+735.976L534.834+735.894L533.604+734.5L513.104+709.982C512.557+709.217+512.325+708.356+512.407+707.399C512.489+706.442+512.885+705.663+513.596+705.062L513.596+705.144L513.678+705.062L513.596+704.98C514.361+704.433+515.222+704.201+516.179+704.283C517.136+704.365+517.915+704.761+518.516+705.472L518.434+705.472L520.566+707.932L540.164+731.384C540.711+732.149+540.943+733.01+540.861+733.967C540.779+734.924+540.383+735.703+539.672+736.304L539.672+736.222L539.59+736.304L539.672+736.304C539.071+736.851+538.333+737.124+537.458+737.124ZM553.612+735.812C552.464+735.812+551.589+735.375+550.988+734.5L519.172+696.124C518.571+695.413+518.325+694.566+518.434+693.582C518.543+692.598+518.953+691.805+519.664+691.204C520.375+690.603+521.222+690.343+522.206+690.425C523.19+690.507+523.955+690.903+524.502+691.614L556.4+730.072C557.001+730.892+557.247+731.767+557.138+732.696C557.029+733.625+556.619+734.418+555.908+735.074C555.143+735.566+554.377+735.812+553.612+735.812Z" opacity="1" fill="#151e27"/>
<path d="M631.758+724.578C624.979+731.357+616.807+734.746+607.24+734.746C597.673+734.746+589.501+731.357+582.722+724.578C575.943+717.799+572.554+709.627+572.554+700.06C572.554+690.493+575.943+682.321+582.722+675.542C589.501+668.763+597.673+665.374+607.24+665.374C616.807+665.374+624.979+668.763+631.758+675.542C638.537+682.321+641.926+690.493+641.926+700.06C641.926+709.627+638.537+717.799+631.758+724.578ZM587.642+719.576C593.054+724.988+599.587+727.694+607.24+727.694C614.893+727.694+621.426+724.988+626.838+719.576C632.25+714.164+634.956+707.659+634.956+700.06C634.956+692.407+632.25+685.874+626.838+680.462C621.426+675.05+614.893+672.344+607.24+672.344C599.587+672.344+593.054+675.05+587.642+680.462C582.23+685.874+579.524+692.407+579.524+700.06C579.524+707.659+582.23+714.164+587.642+719.576ZM614.866+706.046C612.789+708.123+610.247+709.162+607.24+709.162C604.233+709.162+601.678+708.11+599.573+706.005C597.468+703.9+596.416+701.345+596.416+698.338C596.416+695.386+597.468+692.858+599.573+690.753C601.678+688.648+604.233+687.596+607.24+687.596C610.247+687.596+612.802+688.648+614.907+690.753C617.012+692.858+618.064+695.386+618.064+698.338C618.064+701.345+616.998+703.914+614.866+706.046ZM607.24+702.192C608.333+702.192+609.249+701.809+609.987+701.044C610.725+700.279+611.094+699.377+611.094+698.338C611.094+697.299+610.711+696.411+609.946+695.673C609.181+694.935+608.279+694.566+607.24+694.566C606.147+694.566+605.245+694.935+604.534+695.673C603.823+696.411+603.468+697.299+603.468+698.338C603.468+699.431+603.837+700.347+604.575+701.085C605.313+701.823+606.201+702.192+607.24+702.192Z" opacity="1" fill="#151e27"/>
<path d="M691.7+735.074C690.169+735.074+689.103+734.363+688.502+732.942L666.936+683.578L667.264+716.378C667.264+717.362+666.922+718.196+666.239+718.879C665.556+719.562+664.722+719.904+663.738+719.904C662.809+719.904+661.989+719.562+661.278+718.879C660.567+718.196+660.212+717.389+660.212+716.46L659.802+668.49C659.802+667.561+660.144+666.741+660.827+666.03C661.51+665.319+662.317+664.964+663.246+664.964L663.328+664.964C663.547+664.964+663.683+664.991+663.738+665.046C665.487+664.773+666.69+665.456+667.346+667.096L694.898+730.154C695.281+731.029+695.294+731.903+694.939+732.778C694.584+733.653+693.969+734.309+693.094+734.746C692.547+734.965+692.083+735.074+691.7+735.074ZM709.002+734.09C707.471+734.09+706.405+733.379+705.804+731.958L678.252+668.9C677.869+668.025+677.856+667.137+678.211+666.235C678.566+665.333+679.181+664.691+680.056+664.308C680.931+663.925+681.819+663.925+682.721+664.308C683.623+664.691+684.265+665.319+684.648+666.194L706.296+715.804L706.296+685.628C706.296+684.644+706.638+683.824+707.321+683.168C708.004+682.512+708.838+682.184+709.822+682.184C710.751+682.184+711.558+682.526+712.241+683.209C712.924+683.892+713.266+684.699+713.266+685.628L713.266+730.646C713.266+731.575+712.924+732.382+712.241+733.065C711.558+733.748+710.751+734.09+709.822+734.09L709.494+734.09L709.002+734.09Z" opacity="1" fill="#151e27"/>
<path d="M738.768+734.91C737.784+734.91+736.95+734.582+736.267+733.926C735.584+733.27+735.242+732.45+735.242+731.466L735.242+667.506C735.242+666.522+735.584+665.702+736.267+665.046C736.95+664.39+737.784+664.062+738.768+664.062L780.588+664.062C781.572+664.062+782.406+664.39+783.089+665.046C783.772+665.702+784.114+666.522+784.114+667.506C784.114+668.49+783.772+669.324+783.089+670.007C782.406+670.69+781.572+671.032+780.588+671.032L742.212+671.032L742.212+727.94L780.588+727.94C781.572+727.94+782.406+728.282+783.089+728.965C783.772+729.648+784.114+730.482+784.114+731.466C784.114+732.45+783.772+733.27+783.089+733.926C782.406+734.582+781.572+734.91+780.588+734.91L738.768+734.91ZM751.724+709.9C750.74+709.9+749.906+709.558+749.223+708.875C748.54+708.192+748.198+707.358+748.198+706.374C748.198+705.39+748.54+704.57+749.223+703.914C749.906+703.258+750.74+702.93+751.724+702.93L771.158+702.93C772.087+702.93+772.894+703.272+773.577+703.955C774.26+704.638+774.602+705.445+774.602+706.374C774.602+707.358+774.274+708.192+773.618+708.875C772.962+709.558+772.142+709.9+771.158+709.9L751.724+709.9ZM751.724+696.042C750.74+696.042+749.906+695.714+749.223+695.058C748.54+694.402+748.198+693.582+748.198+692.598C748.198+691.614+748.54+690.78+749.223+690.097C749.906+689.414+750.74+689.072+751.724+689.072L771.158+689.072C772.142+689.072+772.962+689.414+773.618+690.097C774.274+690.78+774.602+691.614+774.602+692.598C774.602+693.527+774.26+694.334+773.577+695.017C772.894+695.7+772.087+696.042+771.158+696.042L751.724+696.042Z" opacity="1" fill="#151e27"/>
</g>
</g>
<g id="img_drone_logo" vectornator:layerName="img_drone_logo">
<path d="M800.241+176.913C791.509+157.4+768.79+149.026+748.639+149.232C712.159+149.729+677.246+169.555+655.516+198.411C679.774+197.734+710.799+197.907+723.917+222.536C696.998+220.48+665.78+217.826+643.944+237.008C629.002+248.646+627.588+271.829+638.656+286.559C648.389+299.749+662.177+310.511+678.115+314.891C676.509+296.186+688.691+275.126+709.114+274.987C705.604+287.508+704.138+302.543+713.506+313.039C726.843+328.473+749.21+331.638+768.518+330.264C794.773+327.736+820.537+317.312+840.376+299.749C818.474+298.873+790.188+300.658+777.303+278.995C804.52+280.567+833.496+280.6+857.807+266.375C875.675+256.588+891.978+237.074+887.353+215.444C881.587+193.674+862.146+178.532+842.148+170.285C839.481+183.708+836.044+197.708+826.794+208.298C818.879+218.157+807.201+223.645+795.536+227.685C801.355+211.628+807.884+193.528+800.241+176.913ZM866.087+456.617C834.557+445.748+799.126+458.408+774.417+478.99C789.81+480.337+808.316+475.427+820.902+486.873C819.23+485.347+806.139+488.18+803.618+488.452C796.983+489.168+790.295+490.084+783.852+491.922C776.182+494.112+755.148+503.089+756.986+513.858C757.351+516.027+758.725+517.885+760.184+519.544C768.79+529.351+781.058+533.677+793.413+536.656C794.189+524.308+803.678+517.036+814.148+512.564C815.143+518.648+813.643+526.013+818.348+530.863C828.705+539.781+843.243+539.575+856.062+538.739C875.642+536.815+894.91+530.061+910.762+518.283C895.428+518.96+878.973+520.811+865.311+512.166C887.884+510.414+912.613+508.795+931.078+494.165C937.441+489.553+941.343+480.065+936.393+473.145C928.822+462.867+915.672+459.782+904.073+456.517C901.678+471.021+890.452+480.875+877.069+485.513C878.668+474.624+879.072+460.518+866.087+456.617Z" opacity="1" fill="#ee2e26"/>
<path d="M632.598+394.306C630.189+404.538+629.241+415.645+622.944+424.456C610.191+443.094+588.295+452.344+567.129+457.725C564.8+465.382+562.003+472.889+558.756+480.204C586.61+476.741+616.11+464.731+630.886+439.531C639.366+425.83+637.475+408.903+632.598+394.306Z" opacity="1" fill="#151e27"/>
<path d="M1004.59+438.947C983.755+417.124+952.576+410.118+923.72+406.667C864.409+401.107+803.485+412.009+749.714+437.647C748.679+437.919+746.516+438.45+745.435+438.722C730.273+435.769+715.537+430.826+700.389+427.555C715.331+408.041+730.599+388.792+744.592+368.602C742.741+375.502+740.624+382.297+738.541+389.131C804.242+390.1+870.553+371.024+924.689+333.549C958.163+310.067+987.437+277.634+998.969+237.711C1010.77+198.04+1001.73+152.961+974.89+121.371C940.195+79.55+885.654+59.598+832.806+54.721C764.982+49.234+695.114+64.342+636.373+98.958C590.657+126.447+550.614+170.146+541.737+224.348C535.214+261.246+548.77+299.265+573.672+326.621C557.883+328.127+542.354+331.664+527.471+337.145C504.388+298.084+462.009+274.874+419.306+263.435C359.629+248.002+292.92+252.136+238.85+283.281C213.352+298.084+189.227+321.061+184.721+351.503C180.156+381.726+197.879+410.284+220.412+428.855C254.33+456.782+297.996+470.371+341.164+474.976C377.903+478.778+415.404+475.547+450.67+464.453C449.267+454.997+448.403+445.469+448.082+435.915C407.707+455.329+360.512+457.439+317.304+447.115C289.224+439.989+261.052+427.097+242.546+404.047C230.437+389.23+224.857+368.343+231.777+350.004C240.191+327.597+260.919+312.761+281.912+303.166C324.676+284.256+374.572+284.09+418.536+298.893C448.547+309.151+477.847+328.433+490.507+358.643C471.63+376.239+456.057+399.448+454.91+425.962C452.886+459.403+475.837+490.29+505.343+504.011C538.95+520.433+578.216+519.756+613.874+511.024C609.003+513.513+604.054+515.928+599.104+518.383C614.02+524.474+631.835+533.053+635.206+550.55C636.685+566.295+622.884+577.8+610.457+584.727C580.944+600.572+546.222+604.447+513.186+601.813C490.467+599.364+465.877+594.182+449.197+577.356C440.611+569.009+438.866+554.637+446.324+545.063C458.513+528.203+479.36+521.243+498.482+515.682C490.649+511.237+483.003+506.469+475.565+501.39C452.282+509.167+426.584+519.252+413.732+541.626C405.053+556.462+411.815+575.206+424.461+585.324C448.858+605.708+481.689+611.905+512.542+614.194C555.631+616.35+600.915+610.491+638.629+588.357C654.036+578.935+670.69+563.157+667.021+543.311C662.781+524.607+644.78+514.236+629.128+505.856C633.845+503.401+638.523+500.986+643.201+498.557C666.955+504.21+691.319+507.176+714.787+513.758C706.858+513.864+698.949+514.136+690.98+514.369C700.117+542.063+728.993+555.175+755.128+561.909C814.148+576.002+877.215+569.002+933.54+547.378C962.476+535.329+992.506+519.451+1009.27+491.796C1019.46+475.553+1018.22+452.888+1004.59+438.947ZM506.1+481.074C481.782+477.404+463.575+449.962+469.062+426.128C471.856+413.422+487.395+408.406+498.363+413.993C514.918+421.192+526.522+438.284+527.936+456.179C529.827+468.865+519.894+483.031+506.1+481.074ZM631.185+467.186C604.239+490.9+565.112+498.809+530.63+489.892C541.664+482.998+552.691+473.304+553.979+459.476C557.747+422.904+520.571+384.453+483.082+397.04C511.653+355.663+571.402+342.028+616.216+363.168C635.862+372.357+652.722+390.617+654.832+412.918C657.121+433.639+646.492+453.797+631.185+467.186ZM596.802+281.144C585.164+255.002+588.693+223.983+602.388+199.36C621.703+163.995+656.338+139.478+693.223+125.007C736.69+108.253+785+102.7+830.822+112.188C870.155+120.396+909.992+142.404+927.343+180.284C940.46+208.503+937.037+242.754+920.847+268.996C900.126+303.239+865.006+326.323+828.188+340.277C777.024+359.22+718.722+362.013+667.273+342.473C637.72+331.2+609.687+310.876+596.802+281.144ZM954.361+511.091C927.25+535.176+891.082+546.21+855.856+551.565C819.92+555.891+780.859+555.466+748.427+537.399C733.564+529.497+722.291+511.456+729.729+494.676C739.821+471.765+763.369+458.846+785.378+449.424C826.25+433.513+871.568+427.19+915.008+434.654C935.159+438.629+957.851+446.053+968.321+465.229C976.602+481.545+967.014+500.15+954.361+511.091Z" opacity="1" fill="#151e27"/>
<path d="M276.306+370.984C273.632+372.298+270.911+373.532+268.151+374.832C264.044+359.83+271.482+343.687+283.823+334.862C301.187+322.289+324.941+321.048+344.681+328.214C360.266+333.323+371.393+345.903+379.973+359.293C394.145+347.615+384.889+329.256+374.83+318.354C397.337+319.031+421.25+323.596+438.853+338.571C448.268+345.936+451.459+360.879+443.723+370.566C433.697+383.591+416.804+387.014+401.902+391.453C419.199+400.908+438.68+394.95+456.303+389.874C454.419+397.989+451.765+406.329+445.302+412.049C419.266+437.282+370.544+433.918+350.267+402.892C348.111+407.006+344.243+410.867+344.913+415.95C344.913+424.363+352.583+429.512+357.46+435.364C335.219+434.084+311.372+431.058+293.272+416.859C286.338+411.504+280.592+401.684+285.436+393.145C290.943+383.697+301.818+378.581+312.314+377.062C317.151+375.376+323.787+376.285+326.819+371.448C326.825+371.442+303.768+359.936+276.306+370.984ZM476.6+564.802C486.287+556.906+499.411+556.302+510.983+552.799C497.898+547.551+484.011+550.039+470.509+551.751C481.782+529.523+510.578+524.806+532.879+529.185C544.052+531.135+551.523+540.146+556.905+549.442C561.954+545.355+565.703+540.405+565.159+534.267C565.159+534.267+564.27+530.233+564.323+530.22C563.894+528.934+563.317+527.703+562.604+526.551C575.045+526.551+589.005+530.14+599.396+537.014C605.401+540.989+609.382+549.82+602.11+555.055C591.082+564.484+575.874+565.213+562.445+568.956C575.662+572.724+589.364+571.444+602.78+569.593C583.438+592.033+542.334+598.396+521.44+574.974C511.202+572.492+513.962+584.833+514.911+590.991C502.032+588.841+487.899+587.74+477.33+579.187C472.659+576.122+471.763+568.133+476.6+564.802ZM482.611+423.202C490.341+418.319+501.395+421.411+509.596+429.97C509.45+430.043+509.291+430.089+509.158+430.176C506.962+431.549+506.743+435.139+508.654+438.158C510.572+441.19+513.896+442.524+516.072+441.137C516.323+440.979+516.553+440.789+516.755+440.573C522.037+452.284+520.332+464.711+512.124+469.9C502.815+475.785+488.656+470.099+480.495+457.207C472.353+444.308+473.302+429.081+482.611+423.202Z" opacity="1" fill="#ee2e26"/>
</g>
</svg>
